<svg width="122" height="47" viewBox="0 0 122 47" fill="none" xmlns="http://www.w3.org/2000/svg">
<mask id="mask0" mask-type="alpha" maskUnits="userSpaceOnUse" x="0" y="0" width="122" height="47">
<rect width="122" height="47" fill="white"/>
</mask>
<g mask="url(#mask0)">
<path d="M47.5625 45.3125C46.7708 45.3125 46.0312 45.1563 45.3438 44.8438C44.6562 44.5521 44.0521 44.1458 43.5312 43.625C43.0312 43.1042 42.625 42.4896 42.3125 41.7813C42.0208 41.0938 41.875 40.3542 41.875 39.5625C41.875 38.7708 42.0208 38.0208 42.3125 37.3125C42.625 36.625 43.0312 36.0208 43.5312 35.5C44.0521 35 44.6562 34.5938 45.3438 34.2813C46.0312 33.9896 46.7708 33.8438 47.5625 33.8438C48.3333 33.8438 49.0625 33.9896 49.75 34.2813C50.4583 34.5938 51.0625 35 51.5625 35.5C52.0833 36.0208 52.4896 36.625 52.7812 37.3125C53.0938 38.0208 53.25 38.7708 53.25 39.5625C53.25 40.3542 53.0938 41.0938 52.7812 41.7813C52.4896 42.4896 52.0833 43.1042 51.5625 43.625C51.0625 44.1458 50.4583 44.5521 49.75 44.8438C49.0625 45.1563 48.3333 45.3125 47.5625 45.3125ZM5 43.8438L5 35.25L38.4688 35.25V43.8438L5 43.8438Z" fill="#0876BB"/>
<path d="M83.375 44L55.4688 44L69.5625 19.0938H55.4688L55.4688 10.5938L83.375 10.5937L69.2812 35.5L83.375 35.5V44ZM120.031 44H117.969L114.656 39.4062C113.844 40.1354 112.979 40.8229 112.062 41.4687C111.167 42.0937 110.219 42.6458 109.219 43.125C108.219 43.5833 107.188 43.9479 106.125 44.2187C105.083 44.4896 104.021 44.625 102.938 44.625C100.583 44.625 98.3646 44.2292 96.2812 43.4375C94.2188 42.6458 92.4062 41.5 90.8438 40C89.3021 38.4792 88.0833 36.625 87.1875 34.4375C86.2917 32.25 85.8438 29.7604 85.8438 26.9687C85.8438 24.3646 86.2917 21.9792 87.1875 19.8125C88.0833 17.625 89.3021 15.75 90.8438 14.1875C92.4062 12.625 94.2188 11.4167 96.2812 10.5625C98.3646 9.6875 100.583 9.25 102.938 9.25C104.021 9.25 105.094 9.38542 106.156 9.65625C107.219 9.92708 108.25 10.3021 109.25 10.7812C110.25 11.2604 111.198 11.8229 112.094 12.4687C113.01 13.1146 113.865 13.8125 114.656 14.5625L117.969 10.5937H120.031L120.031 44ZM111.438 26.9687C111.438 25.8021 111.208 24.6771 110.75 23.5937C110.312 22.4896 109.708 21.5208 108.938 20.6875C108.167 19.8333 107.26 19.1562 106.219 18.6562C105.198 18.1354 104.104 17.875 102.938 17.875C101.771 17.875 100.667 18.0729 99.625 18.4687C98.6042 18.8646 97.7083 19.4479 96.9375 20.2187C96.1875 20.9896 95.5938 21.9479 95.1562 23.0937C94.7188 24.2187 94.5 25.5104 94.5 26.9687C94.5 28.4271 94.7188 29.7292 95.1562 30.875C95.5938 32 96.1875 32.9479 96.9375 33.7187C97.7083 34.4896 98.6042 35.0729 99.625 35.4687C100.667 35.8646 101.771 36.0625 102.938 36.0625C104.104 36.0625 105.198 35.8125 106.219 35.3125C107.26 34.7917 108.167 34.1146 108.938 33.2812C109.708 32.4271 110.312 31.4583 110.75 30.375C111.208 29.2708 111.438 28.1354 111.438 26.9687Z" fill="#0876BB"/>
<g clip-path="url(#clip0)">
<path d="M23.6974 36.0964H37.1633C37.1633 36.0964 39.1271 36.8536 39.4284 28.9527C39.4355 28.7111 39.5075 28.4762 39.6367 28.2735C39.7659 28.0708 39.9472 27.9083 40.1609 27.8036C40.5455 27.6534 40.8883 27.41 41.1599 27.0945C41.4315 26.7789 41.6235 26.4007 41.7195 25.9925C41.7456 25.7554 41.7115 25.5156 41.6205 25.2958C41.5295 25.076 41.3847 24.8838 41.2 24.7374C41.0545 24.6103 40.4103 24.3456 40.9973 23.9272C40.9973 23.9272 43.3663 22.7198 40.748 20.4321C38.7374 18.6793 39.1894 18.2186 36.1191 21.7401C35.9928 21.8987 35.8348 22.0279 35.6556 22.1193C35.4765 22.2106 35.2802 22.2619 35.08 22.2697H25.3131C25.2188 22.2696 25.1247 22.259 25.0326 22.2379C24.2637 22.0632 20.6219 21.1312 19.5621 19.0288C18.5542 17.0324 19.8478 10.3494 20.2582 8.39007C20.3197 8.08432 20.4876 7.81157 20.731 7.62222C21.1985 7.25682 21.8843 6.43601 21.183 5.04858C20.3673 3.43344 16.019 4.12715 14.4864 4.429C14.3172 4.46268 14.1563 4.53007 14.0128 4.62731C13.8692 4.72454 13.7459 4.84971 13.65 4.99562C12.1797 7.24623 5.96631 17.1754 9.27564 19.7278C13.0162 22.5874 14.7098 11.4032 14.7098 11.4032C13.8318 18.1974 11.7745 19.9397 10.9589 20.3686C10.722 20.4849 10.5235 20.6689 10.3874 20.8982L5.6546 29.4081C5.62556 29.4558 5.59953 29.5053 5.57668 29.5564C5.36367 30.0859 4.31425 32.9879 5.75851 35.4821C5.87434 35.6728 6.03669 35.8296 6.22972 35.9373C6.42275 36.0449 6.63987 36.0998 6.85988 36.0964H23.6974Z" fill="#4CAAD3"/>
<path d="M22.7311 30.3984C17.5359 32.3789 17.2242 37.6427 17.2554 39.4008C17.2873 39.7946 17.1665 40.1855 16.9188 40.4895C16.6711 40.7935 16.3163 40.9863 15.9306 41.0265H15.8891C14.5383 41.0265 14.5019 39.9092 14.5019 39.9092C14.3773 31.2827 17.2866 26.2784 17.2866 26.2784L22.7311 30.3984Z" fill="#4CAAD3"/>
<path d="M31.3552 26.1512C31.3552 26.1512 28.3627 27.1521 28.69 32.633L24.1079 34.3488C23.9837 34.4478 23.8833 34.5744 23.8142 34.7189C23.7451 34.8634 23.7092 35.0221 23.7092 35.1828C23.7092 35.3435 23.7451 35.5022 23.8142 35.6467C23.8833 35.7912 23.9837 35.9178 24.1079 36.0169H26.4665" stroke="#065C8B" stroke-width="0.25" stroke-miterlimit="10"/>
<path d="M18.5074 26.4478C18.5074 26.4478 15.5254 27.7981 14.4863 38.4846C14.4863 38.4846 14.9019 28.746 18.5022 26.2518L18.5074 26.4478Z" fill="#065B8A"/>
<path d="M15.0527 34.1634C13.4942 33.851 11.8889 33.8086 9.55103 33.3479Z" fill="#065B8A"/>
<path d="M15.0527 34.1634C13.4942 33.851 11.8889 33.8086 9.55103 33.3479" stroke="#065B8A" stroke-width="0.25" stroke-miterlimit="10"/>
<path d="M19.427 4.54548C19.427 4.54548 19.5309 3.95767 20.3725 4.08477C20.4869 4.20311 20.5723 4.34721 20.622 4.50544C20.6716 4.66367 20.684 4.83157 20.6583 4.9956C20.518 5.4722 19.427 4.54548 19.427 4.54548Z" fill="#065B8A" stroke="#065B8A" stroke-width="0.25" stroke-miterlimit="10"/>
<path d="M20.4557 7.81287C20.4557 7.81287 18.5283 9.34328 17.1931 9.18971V9.10498C17.6174 9.16449 18.0495 9.09446 18.4348 8.90375C19.138 8.60015 19.8141 8.23517 20.4557 7.81287V7.81287Z" fill="#0A4B68"/>
</g>
</g>
<defs>
<clipPath id="clip0">
<rect width="37" height="37" fill="white" transform="translate(5 4)"/>
</clipPath>
</defs>
</svg>
