<svg width="1920" height="1080" viewBox="0 0 1920 1080" fill="none" xmlns="http://www.w3.org/2000/svg">
<mask id="mask0" mask-type="alpha" maskUnits="userSpaceOnUse" x="0" y="0" width="1920" height="1080">
<rect width="1920" height="1080" fill="#C4C4C4"/>
</mask>
<g mask="url(#mask0)">
<path d="M1078.58 760H468.129L776.43 215.176H468.129L468.129 29.2383L1078.58 29.2383L770.277 574.062H1078.58V760ZM1880.43 760H1835.32L1762.86 659.512C1745.08 675.462 1726.17 690.501 1706.12 704.629C1686.52 718.301 1665.79 730.378 1643.91 740.859C1622.04 750.885 1599.48 758.861 1576.23 764.785C1553.45 770.71 1530.21 773.672 1506.51 773.672C1455.01 773.672 1406.48 765.013 1360.9 747.695C1315.79 730.378 1276.14 705.312 1241.96 672.5C1208.23 639.232 1181.57 598.672 1161.98 550.82C1142.38 502.969 1132.58 448.509 1132.58 387.441C1132.58 330.475 1142.38 278.294 1161.98 230.898C1181.57 183.047 1208.23 142.031 1241.96 107.852C1276.14 73.6719 1315.79 47.2396 1360.9 28.5547C1406.48 9.41406 1455.01 -0.15625 1506.51 -0.15625C1530.21 -0.15625 1553.68 2.80599 1576.92 8.73047C1600.16 14.6549 1622.72 22.8581 1644.59 33.3398C1666.47 43.8216 1687.2 56.1263 1706.8 70.2539C1726.85 84.3815 1745.54 99.6484 1762.86 116.055L1835.32 29.2383H1880.43L1880.43 760ZM1692.45 387.441C1692.45 361.921 1687.43 337.311 1677.41 313.613C1667.84 289.46 1654.62 268.268 1637.76 250.039C1620.9 231.354 1601.07 216.543 1578.29 205.605C1555.95 194.212 1532.03 188.516 1506.51 188.516C1480.99 188.516 1456.83 192.845 1434.05 201.504C1411.72 210.163 1392.12 222.923 1375.26 239.785C1358.85 256.647 1345.86 277.611 1336.29 302.676C1326.72 327.285 1321.94 355.54 1321.94 387.441C1321.94 419.342 1326.72 447.826 1336.29 472.891C1345.86 497.5 1358.85 518.236 1375.26 535.098C1392.12 551.96 1411.72 564.72 1434.05 573.379C1456.83 582.038 1480.99 586.367 1506.51 586.367C1532.03 586.367 1555.95 580.898 1578.29 569.961C1601.07 558.568 1620.9 543.757 1637.76 525.527C1654.62 506.842 1667.84 485.651 1677.41 461.953C1687.43 437.799 1692.45 412.962 1692.45 387.441Z" fill="#067BC2" fill-opacity="0.05"/>
<g clip-path="url(#clip0)">
<path d="M328.259 807.482H516.417C516.417 807.482 543.857 818.063 548.067 707.663C548.166 704.288 549.173 701.005 550.978 698.173C552.783 695.341 555.317 693.07 558.303 691.606C563.676 689.508 568.467 686.108 572.261 681.698C576.056 677.289 578.739 672.004 580.08 666.3C580.445 662.988 579.969 659.636 578.697 656.566C577.426 653.495 575.403 650.808 572.821 648.764C570.788 646.988 561.787 643.288 569.99 637.442C569.99 637.442 603.092 620.572 566.506 588.606C538.412 564.114 544.728 557.676 501.826 606.883C500.062 609.098 497.854 610.904 495.35 612.18C492.847 613.456 490.105 614.173 487.308 614.282H350.835C349.516 614.281 348.202 614.132 346.915 613.838C336.171 611.396 285.284 598.373 270.475 568.997C256.393 541.102 274.468 447.72 280.203 420.342C281.061 416.07 283.408 412.259 286.809 409.613C293.342 404.508 302.924 393.038 293.124 373.652C281.727 351.083 220.968 360.777 199.553 364.994C197.19 365.465 194.941 366.407 192.935 367.765C190.929 369.124 189.207 370.873 187.866 372.912C167.322 404.36 80.5023 543.099 126.743 578.765C179.01 618.722 202.675 462.445 202.675 462.445C190.407 557.38 161.66 581.725 150.263 587.718C146.954 589.343 144.18 591.914 142.278 595.118L76.1468 714.027C75.7409 714.693 75.3772 715.385 75.0579 716.099C72.0816 723.498 57.418 764.047 77.5986 798.899C79.2171 801.563 81.4857 803.755 84.1829 805.259C86.8801 806.763 89.9139 807.529 92.9881 807.482H328.259Z" fill="#B5D4E1"/>
<path d="M314.756 727.864C242.164 755.538 237.809 829.088 238.244 853.655C238.691 859.158 237.002 864.619 233.541 868.867C230.079 873.114 225.122 875.809 219.733 876.371H219.153C200.279 876.371 199.771 860.758 199.771 860.758C198.028 740.221 238.68 670.296 238.68 670.296L314.756 727.864Z" fill="#B5D4E1"/>
<path d="M435.258 668.519C435.258 668.519 393.445 682.504 398.018 759.088L333.992 783.062C332.257 784.447 330.854 786.215 329.889 788.235C328.924 790.254 328.422 792.47 328.422 794.717C328.422 796.963 328.924 799.179 329.889 801.198C330.854 803.218 332.257 804.986 333.992 806.371H366.949" stroke="#6FA0BB" stroke-width="2" stroke-miterlimit="10"/>
<path d="M255.738 672.662C255.738 672.662 214.071 691.531 199.552 840.852C199.552 840.852 205.36 704.776 255.666 669.924L255.738 672.662Z" fill="#7BB3D2"/>
<path d="M207.466 780.472C185.689 776.107 163.258 775.515 130.591 769.077Z" fill="#7BB3D2"/>
<path d="M207.466 780.472C185.689 776.107 163.258 775.515 130.591 769.077" stroke="#7BB3D2" stroke-width="2" stroke-miterlimit="10"/>
<path d="M268.588 366.622C268.588 366.622 270.04 358.409 281.8 360.185C283.398 361.838 284.592 363.852 285.286 366.063C285.979 368.273 286.153 370.62 285.792 372.912C283.832 379.571 268.588 366.622 268.588 366.622Z" fill="#7BB3D2" stroke="#7BB3D2" stroke-width="0.25" stroke-miterlimit="10"/>
<path d="M282.962 412.277C282.962 412.277 256.03 433.662 237.374 431.516V430.332C243.303 431.163 249.34 430.185 254.723 427.52C264.55 423.278 273.997 418.178 282.962 412.277V412.277Z" fill="#0A4B68"/>
</g>
<rect y="808" width="1920" height="272" fill="#067BC2" fill-opacity="0.05"/>
</g>
<defs>
<clipPath id="clip0">
<rect width="517" height="517" fill="white" transform="translate(67 359)"/>
</clipPath>
</defs>
</svg>
