<svg id="Capa_1" data-name="Capa 1" xmlns="http://www.w3.org/2000/svg" xmlns:xlink="http://www.w3.org/1999/xlink" viewBox="0 0 395.44 214.29"><defs><style>.cls-1{fill:#065a8d;opacity:0.31;}.cls-2{clip-path:url(#clip-path);}.cls-3{fill:#0a88d6;}.cls-4{fill:#0876bb;}.cls-5{fill:none;}.cls-6{fill:#353535;}.cls-7{fill:#065b8a;}.cls-8{fill:#414344;}.cls-9{fill:#444;}.cls-10{fill:#2d2d2d;}</style><clipPath id="clip-path" transform="translate(-2.69 -0.55)"><ellipse class="cls-1" cx="63.78" cy="61.77" rx="61.09" ry="61.23"/></clipPath></defs><title>logo_v2</title><ellipse class="cls-1" cx="61.09" cy="61.23" rx="61.09" ry="61.23"/><g class="cls-2"><path class="cls-3" d="M199.47,130.26A7.47,7.47,0,0,1,200,134a13.81,13.81,0,0,1-8.35,9.73,6.86,6.86,0,0,0-2.82,2.52,7.28,7.28,0,0,0-1.12,3.66c-1.61,42.47-12.15,38.41-12.15,38.41H14.91l.65-.34,11.86-14.44,3,.23s0-16.14,19.44-38.94,6.29-78.92,6.29-78.92L55,56.45a6.56,6.56,0,0,1,.09-.76c0,.16-.08.42-.13.78-1,6.18-7.5,42-20.29,46-2.62.81-5.53.27-8.71-2.16C8.18,86.59,41.52,33.2,49.41,21.1a7.08,7.08,0,0,1,4.48-3.05c5.84-1.16,19.26-3.37,28.13-1.43a15.66,15.66,0,0,1,4.74,1.7,7.59,7.59,0,0,1,3.06,3.07c3.76,7.46.09,11.87-2.43,13.84a7,7,0,0,0-2.53,4.11c-2.2,10.55-9.15,46.48-3.74,57.21,5.69,11.31,25.22,16.33,29.36,17.27a6.82,6.82,0,0,0,1.5.16h52.4a7.32,7.32,0,0,0,3.09-.81,7.49,7.49,0,0,0,2.48-2c16.47-18.94,14-16.45,24.84-7,14,12.3,1.33,18.79,1.33,18.79-3.14,2.25.31,3.66,1.09,4.35A7.64,7.64,0,0,1,199.47,130.26Z" transform="translate(-2.69 -0.55)"/><path class="cls-4" d="M98.13,157.69c-27.88,10.65-29.55,39-29.38,48.41A8.22,8.22,0,0,1,66.94,212a7.87,7.87,0,0,1-5.3,2.89h-.22c-7.25,0-7.44-6-7.44-6-.67-46.38,14.94-73.29,14.94-73.29Z" transform="translate(-2.69 -0.55)"/><path class="cls-5" d="M144.39,134.85s-16,5.39-14.29,34.86l-24.59,9.22a5.79,5.79,0,0,0-2.14,4.49,5.78,5.78,0,0,0,.57,2.49,5.67,5.67,0,0,0,1.57,2h12.66" transform="translate(-2.69 -0.55)"/><path class="cls-6" d="M75.47,136.45s-16,7.26-21.58,64.72c0,0,2.23-52.36,21.55-65.77Z" transform="translate(-2.69 -0.55)"/><path class="cls-7" d="M56.93,177.94c-8.36-1.68-17-1.91-29.51-4.39Z" transform="translate(-2.69 -0.55)"/><path class="cls-5" d="M56.93,177.94c-8.36-1.68-17-1.91-29.51-4.39" transform="translate(-2.69 -0.55)"/><path class="cls-8" d="M80.4,18.68s.56-3.16,5.07-2.48a5.71,5.71,0,0,1,1.34,2.26A5.9,5.9,0,0,1,87,21.1C86.25,23.66,80.4,18.68,80.4,18.68Z" transform="translate(-2.69 -0.55)"/><path class="cls-6" d="M86.13,36.41a45.8,45.8,0,0,1-18.4,7.74.52.52,0,0,0-.09.88s11.69-1.23,18.49-8C86.13,37,86.68,36.32,86.13,36.41Z" transform="translate(-2.69 -0.55)"/><path class="cls-4" d="M51.65,135c-19.43,22.8-21.23,38.82-21.23,38.82l-3-.23L15.56,188l-.65.34H13a6.72,6.72,0,0,1-3.39-.85A7.21,7.21,0,0,1,7.06,185c-7.73-13.43-2.11-29-1-31.88a6.89,6.89,0,0,1,.43-.8l25.39-45.75A7.28,7.28,0,0,1,35,103.76c4.36-2.28,15.24-11.52,20-47.31l1.17-.53S71.07,112.17,51.65,135Z" transform="translate(-2.69 -0.55)"/><path class="cls-9" d="M55,56.45s-9.51,48-22.92,46.07c-4.9-.7-8.75-3.51-10.15-8.77-1.92-7.22.52-16.48,1.35-18.35,0,0-.24-1.05-.7,0s-4.14,13.21.17,21.74c1.89,3.74,9.19,10.22,15.22,5.38C45.71,96.3,52.94,76.33,55,56.45Z" transform="translate(-2.69 -0.55)"/><path class="cls-9" d="M57.19,177.55s-25.56-2.83-30.54-4.85a.3.3,0,0,0-.18.52c.28.42,14.65,3.06,30.6,4.73Z" transform="translate(-2.69 -0.55)"/></g><path class="cls-10" d="M154.11,17.73h21.58L164.83,94.19h51.49l-2.53,18H140.72Z" transform="translate(-2.69 -0.55)"/><path class="cls-10" d="M229.57,42.67h21l-8.09,69.47H221.49Zm.21-14.27a12,12,0,0,1,3.3-8.58,11.37,11.37,0,0,1,8.68-3.5,14.17,14.17,0,0,1,7.49,2.31c2.49,1.53,3.74,4.21,3.74,8a12.13,12.13,0,0,1-3.3,8.51A11.25,11.25,0,0,1,241,38.74a14.13,14.13,0,0,1-7.48-2.31C231,34.89,229.78,32.22,229.78,28.4Z" transform="translate(-2.69 -0.55)"/><path class="cls-10" d="M271.63,60.8a11.17,11.17,0,0,1-8.91-4.14c-2.35-2.75-3.27-9.4-2.77-14.07l21.11.08h41.46l-42.66,56L276.57,94h39.67l-2.1,18.12H247.82l43.86-57.7,2.4,6.36Z" transform="translate(-2.69 -0.55)"/><path class="cls-10" d="M344.83,111.74a23.15,23.15,0,0,1-12.58-3.53,28.31,28.31,0,0,1-10.1-10.75q-4-7.06-4-17.08a36.92,36.92,0,0,1,2.7-13.91,39.31,39.31,0,0,1,7.63-12.07,37.3,37.3,0,0,1,11.68-8.54A34.41,34.41,0,0,1,355,42.69a32.37,32.37,0,0,1,10.7,1.48,19.76,19.76,0,0,1,6.66,3.75,27.09,27.09,0,0,1,4.35,4.93l-1.35,3.09,3.29-10h19.46l-7.93,64.34h-21l1.65-14,1.19,4.42a8.31,8.31,0,0,0-2.09,1.69,38.24,38.24,0,0,1-5.17,3.9,36.41,36.41,0,0,1-8.38,3.91A34,34,0,0,1,344.83,111.74Zm11.82-17.8a14.54,14.54,0,0,0,5.77-1.19,19.21,19.21,0,0,0,5.31-3.5,22.32,22.32,0,0,0,4.49-5.8l1.95-17a13.4,13.4,0,0,0-2.84-6,14,14,0,0,0-5.24-3.82,20.28,20.28,0,0,0-15.87.56,17.82,17.82,0,0,0-5.91,4.92,20.11,20.11,0,0,0-3.37,6.44,22.45,22.45,0,0,0-1.05,6.6,22,22,0,0,0,2.1,9.93,15.33,15.33,0,0,0,5.91,6.52A16.55,16.55,0,0,0,356.65,93.94Z" transform="translate(-2.69 -0.55)"/></svg>