<svg xmlns="http://www.w3.org/2000/svg" xmlns:xlink="http://www.w3.org/1999/xlink" viewBox="0 0 174.42 81"><defs><style>.cls-1,.cls-5{fill:none;}.cls-1{opacity:0.31;}.cls-2{clip-path:url(#clip-path);}.cls-3{fill:#0a88d6;}.cls-4{fill:#0876bb;}.cls-6{fill:#353535;}.cls-7{fill:#065b8a;}.cls-8{fill:#414344;}.cls-9{fill:#444;}</style><clipPath id="clip-path" transform="translate(-9.26 -9)"><ellipse class="cls-1" cx="35.92" cy="36" rx="35.92" ry="36"/></clipPath></defs><title>Recurso 1</title><g id="Capa_2" data-name="Capa 2"><g id="Capa_5" data-name="Capa 5"><g class="cls-2"><path class="cls-3" d="M89.22,55.57a3.17,3.17,0,0,1,.21,1.53,5.8,5.8,0,0,1-1.22,2.41A5.63,5.63,0,0,1,86,61.06a2.83,2.83,0,0,0-1.15,1,3,3,0,0,0-.46,1.49c-.65,17.29-4.94,15.64-4.94,15.64H14.09l.26-.14,4.83-5.88,1.22.1s0-6.58,7.91-15.85,2.57-32.13,2.57-32.13l-.48.22a3,3,0,0,1,0-.31c0,.06,0,.17-.05.31-.42,2.52-3.05,17.12-8.25,18.73a3.82,3.82,0,0,1-3.55-.88c-7.23-5.59,6.34-27.32,9.55-32.25a2.9,2.9,0,0,1,.8-.8,2.87,2.87,0,0,1,1-.44c2.37-.47,7.83-1.37,11.45-.58a6.56,6.56,0,0,1,1.93.7,3.08,3.08,0,0,1,1.24,1.24c1.53,3,0,4.83-1,5.64a2.86,2.86,0,0,0-1,1.67c-.9,4.3-3.72,18.92-1.52,23.29,2.32,4.6,10.27,6.65,12,7a3.17,3.17,0,0,0,.61.07H74.93a3.12,3.12,0,0,0,1.26-.34,3.2,3.2,0,0,0,1-.82c6.7-7.71,5.72-6.7,10.11-2.86,5.72,5,.54,7.64.54,7.64-1.28.92.13,1.49.45,1.77A3.19,3.19,0,0,1,89.22,55.57Z" transform="translate(-9.26 -9)"/><path class="cls-4" d="M48,66.74c-11.34,4.33-12,15.85-12,19.7a3.34,3.34,0,0,1-.73,2.38A3.22,3.22,0,0,1,33.11,90H33c-3,0-3-2.45-3-2.45-.27-18.88,6.08-29.83,6.08-29.83Z" transform="translate(-9.26 -9)"/><path class="cls-5" d="M66.8,57.44S60.26,59.63,61,71.63L51,75.38a2.34,2.34,0,0,0-.87,1.83,2.33,2.33,0,0,0,.23,1A2.22,2.22,0,0,0,51,79h5.15" transform="translate(-9.26 -9)"/><path class="cls-6" d="M38.74,58.09s-6.51,3-8.78,26.35c0,0,.9-21.32,8.77-26.78Z" transform="translate(-9.26 -9)"/><path class="cls-7" d="M31.19,75c-3.4-.69-6.91-.78-12-1.79Z" transform="translate(-9.26 -9)"/><path class="cls-5" d="M31.19,75c-3.4-.69-6.91-.78-12-1.79" transform="translate(-9.26 -9)"/><path class="cls-8" d="M40.75,10.15s.22-1.29,2.06-1a2.41,2.41,0,0,1,.55.92,2.63,2.63,0,0,1,.08,1.08C43.13,12.18,40.75,10.15,40.75,10.15Z" transform="translate(-9.26 -9)"/><path class="cls-6" d="M43.08,17.37a18.58,18.58,0,0,1-7.49,3.15.21.21,0,0,0,0,.36s4.76-.5,7.53-3.27C43.08,17.61,43.3,17.33,43.08,17.37Z" transform="translate(-9.26 -9)"/><path class="cls-4" d="M28.31,57.44C20.4,66.71,20.4,73.29,20.4,73.29l-1.22-.1-4.83,5.88-.26.14H13.3a2.68,2.68,0,0,1-1.38-.35,3,3,0,0,1-1-1c-3.15-5.47-.86-11.82-.39-13a3.24,3.24,0,0,1,.17-.32L21,45.94a2.93,2.93,0,0,1,1.24-1.15c1.77-.93,6.2-4.7,8.15-19.26l.48-.22S36.22,48.16,28.31,57.44Z" transform="translate(-9.26 -9)"/><path class="cls-9" d="M30.4,25.53s-3.87,19.53-9.33,18.75a4.7,4.7,0,0,1-4.13-3.57,14.26,14.26,0,0,1,.55-7.47s-.1-.43-.29,0-1.69,5.38.07,8.85c.77,1.52,3.74,4.16,6.2,2.19C26.62,41.75,29.57,33.62,30.4,25.53Z" transform="translate(-9.26 -9)"/><path class="cls-9" d="M31.3,74.82s-10.4-1.15-12.43-2a.13.13,0,0,0-.08.21A97.45,97.45,0,0,0,31.25,75Z" transform="translate(-9.26 -9)"/></g><path d="M77.87,16.68h6.62v39h23.33v5H77.87Z" transform="translate(-9.26 -9)"/><path d="M119.07,19.94c0,1.95-1.6,3.67-4.28,3.67a3.79,3.79,0,0,1-4.07-3.67c0-2,1.7-3.67,4.2-3.67A3.83,3.83,0,0,1,119.07,19.94Zm-7.5,40.73V29.11h6.62V60.67Z" transform="translate(-9.26 -9)"/><path d="M121.68,57.24,139.17,39c1.78-1.82,3.3-3.26,5.23-5v-.13H123.12V29.11h29.53l-.05,3.67-17.27,18c-1.69,1.74-3.26,3.35-5.09,5v.13H153v4.73H121.68Z" transform="translate(-9.26 -9)"/><path d="M177.67,60.67l-.62-4.2h-.19c-2.06,2.47-6.29,5-12,5-7.9,0-11.53-4.85-11.53-9.06,0-7.57,7.71-12,23.16-11.87V40c0-2-.67-7.36-8.79-7.31a21.05,21.05,0,0,0-10.27,2.59l-1.54-3.91a26.43,26.43,0,0,1,12.73-3c12,0,14.47,7.41,14.47,13.47V53a42.76,42.76,0,0,0,.58,7.69Zm-1-16c-8.27-.18-16.56,1.14-16.56,7,0,3.66,2.9,5.48,6.51,5.48,5.36,0,8.56-3,9.7-5.48a4.88,4.88,0,0,0,.35-1.81Z" transform="translate(-9.26 -9)"/></g></g></svg>