<svg xmlns="http://www.w3.org/2000/svg" xmlns:xlink="http://www.w3.org/1999/xlink" viewBox="0 0 218.63 124.46"><defs><style>.cls-1,.cls-10{fill:#0876bb;}.cls-2{opacity:0.18;fill:url(#Degradado_sin_nombre_31);}.cls-3{fill:url(#Degradado_sin_nombre_31-2);}.cls-4{fill:#414344;}.cls-5{fill:#353535;}.cls-6{fill:#2d2f30;}.cls-7{fill:url(#Degradado_sin_nombre_8);}.cls-8{fill:url(#Degradado_sin_nombre_8-2);}.cls-9{fill:#f7f7f7;opacity:0.06;}.cls-10{font-size:112.44px;font-family:Righteous-Regular, Righteous;}.cls-11{letter-spacing:-0.01em;}.cls-12{letter-spacing:0em;}</style><linearGradient id="Degradado_sin_nombre_31" y1="72.57" x2="19.95" y2="72.57" gradientUnits="userSpaceOnUse"><stop offset="0" stop-color="#158fcc"/><stop offset="0.45" stop-color="#12658c"/><stop offset="0.99" stop-color="#0f3544"/></linearGradient><linearGradient id="Degradado_sin_nombre_31-2" x1="8.33" y1="91.14" x2="33.76" y2="91.14" xlink:href="#Degradado_sin_nombre_31"/><linearGradient id="Degradado_sin_nombre_8" x1="23.67" y1="88.64" x2="35.56" y2="88.64" gradientUnits="userSpaceOnUse"><stop offset="0" stop-color="#0876bb"/><stop offset="0.38" stop-color="#0b5c8c"/><stop offset="0.99" stop-color="#0f3544"/></linearGradient><linearGradient id="Degradado_sin_nombre_8-2" x1="44.39" y1="85.4" x2="50.76" y2="86.92" xlink:href="#Degradado_sin_nombre_8"/></defs><title>Recurso 3</title><g id="Capa_2" data-name="Capa 2"><g id="Capa_1-2" data-name="Capa 1"><g id="nuevo"><path class="cls-1" d="M67.43,74.35c-.27-.23-1.46-.72-.37-1.5,0,0,4.41-2.26-.47-6.53a15.71,15.71,0,0,0-2.86-2.39A21.41,21.41,0,0,1,44.86,74.52c-9.83,0-18.09-6.12-20.43-14.39a17.27,17.27,0,0,1-.67-4.79,18,18,0,0,1,4.45-11.76,9.32,9.32,0,0,1,.67-.74s0,0,0,0h0a1.3,1.3,0,0,1,.3-.32.41.41,0,0,1,.1-.09c.18-.19.37-.37.56-.54a3.58,3.58,0,0,0,.28-4.28,2.64,2.64,0,0,0-1.06-1.06h0a3.1,3.1,0,0,0-.55-.26,5.37,5.37,0,0,0-1.09-.33c-3.08-.67-7.73.1-9.76.5a2.44,2.44,0,0,0-.88.36,2.55,2.55,0,0,0-.69.7c-1.78,2.74-7.34,11.61-9.27,18.76a0,0,0,0,0,0,0,.2.2,0,0,0,0,.08c-.16.37-1.44,4.58.06,7.56.53,1,2.27,2.69,4,2.42a2.53,2.53,0,0,0-.83.86L1.12,83.26A1,1,0,0,0,1,83.4c-.43,1.11-2.28,6.43.36,11a2.58,2.58,0,0,0,.88.86,2.54,2.54,0,0,0,1.18.29H59.91S63.57,97,64.13,82.22A2.52,2.52,0,0,1,64.52,81a2.47,2.47,0,0,1,1-.87,4.66,4.66,0,0,0,1.86-1.32,4.55,4.55,0,0,0,1-2.05,2.53,2.53,0,0,0-.18-1.31A2.68,2.68,0,0,0,67.43,74.35Z"/><path id="sombra" class="cls-2" d="M16.26,77C9.51,84.9,9.51,90.51,9.51,90.51l-1-.08-4.11,5-.23.12H3.45a2.32,2.32,0,0,1-1.18-.29,2.55,2.55,0,0,1-.88-.85C-1.25,89.83.6,84.51,1,83.4l.06-.14L10,67.18a2.51,2.51,0,0,1,1.06-1c1.51-.8,5.29-4,7-16.43l.41-.19S23,69.07,16.26,77Z"/><path id="patita" class="cls-3" d="M19,91.51S10.1,91,8.37,90.32c0,0-.1-.1,0,0A81.71,81.71,0,0,0,19,92Z"/><path id="nariz" class="cls-4" d="M26.37,36.5s.19-1.1,1.76-.86a2,2,0,0,1,.46.78,1.92,1.92,0,0,1,.07.92C28.4,38.23,26.37,36.5,26.37,36.5Z"/><path id="boca" class="cls-5" d="M30,41.47a15.88,15.88,0,0,1-6.39,2.69.18.18,0,0,0,0,.3S27.6,44,30,41.67C30,41.67,30.16,41.44,30,41.47Z"/><path id="patita-2" data-name="patita" class="cls-1" d="M32.53,85.07a.31.31,0,0,1-.08.54c-9.18,3.85-9.73,13.38-9.68,16.6a2.83,2.83,0,0,1-.62,2,2.8,2.8,0,0,1-1.85,1h-.07a2.3,2.3,0,0,1-2.59-2.09c-.2-14.35,4.28-22.74,5.22-24.53.09-.18.6-.48.76-.36Z"/><path id="patita-3" data-name="patita" class="cls-6" d="M25.24,76.27s-5.55,2.52-7.49,22.47c0,0,.78-18.18,7.48-22.84Z"/><path id="sombra-2" data-name="sombra" class="cls-7" d="M25.31,95.53C27.45,85,35.56,81.73,35.56,81.73,25.7,85.05,23.67,95.55,23.67,95.55Z"/><path class="cls-8" d="M44.22,91.85s.1-10.78,6.54-11.42c0,0-5.32,1.32-5.36,11.32Z"/><path class="cls-6" d="M50.86,80.46s-5.56.41-5.56,11.39c0,0-6.58-.49-6.58,3.72h.38s-.16-3.77,6.53-3.48l0-.46s-.26-9.58,5.26-11Z"/><path class="cls-9" d="M29.47,41.67l0,0c-.2.18-.4.38-.6.58l-.11.09a1.26,1.26,0,0,0-.29.32,9.86,9.86,0,0,0-.69.76,18,18,0,0,0-4.45,11.76A17.64,17.64,0,0,0,24,60a.29.29,0,0,1-.07.08c-.18-.55-.34-1.1-.47-1.65a26,26,0,0,1,.1-13,3.84,3.84,0,0,1,.11-.4A26.27,26.27,0,0,1,27.3,37.2c.57.37,1.25.66,1.39.18a2,2,0,0,0-.07-.92v0a2.64,2.64,0,0,1,1.06,1.06A3.61,3.61,0,0,1,29.47,41.67Z"/></g><text class="cls-10" transform="translate(70.45 95.58)">i<tspan class="cls-11" x="26.52" y="0">z</tspan><tspan class="cls-12" x="79.83" y="0">a</tspan></text></g></g></svg>