<svg xmlns="http://www.w3.org/2000/svg" viewBox="0 0 208.45 74.84"><defs><style>.cls-1{fill:#bfbebe;}.cls-2{fill:#616160;}.cls-3{fill:#e5e4e4;}.cls-4{fill:#1d1d1b;}.cls-5{fill:#727272;}.cls-6{fill:#dd7725;}.cls-7{fill:#999;}</style></defs><g id="Capa_5" data-name="Capa 5"><path class="cls-1" d="M32.62,58l.12-.12-.12.1a4,4,0,0,0,.61-.47,1.24,1.24,0,0,0,.32-1,1.74,1.74,0,0,0-.42-1,3.49,3.49,0,0,0-.65-.56A.67.67,0,0,0,32,55a.66.66,0,0,0-.38.29.67.67,0,0,0-.06.48.73.73,0,0,0,.29.38l.1.08-.12-.1a2.43,2.43,0,0,1,.44.41l-.1-.13a1.28,1.28,0,0,1,.15.25l-.07-.15a.67.67,0,0,1,.07.24l0-.17a.74.74,0,0,1,0,.21l0-.17a.47.47,0,0,1,0,.17l.06-.15a.54.54,0,0,1-.07.13l.1-.12a.67.67,0,0,1-.15.14l.13-.1a3.53,3.53,0,0,0-.61.47.68.68,0,0,0-.19.44.61.61,0,0,0,.19.44.63.63,0,0,0,.88,0Z" transform="translate(-25.92 -6.39)"/><path class="cls-1" d="M30.12,64.6a9.35,9.35,0,0,0,1.1,5.74,16.66,16.66,0,0,0,1.69,2.56c.32.42.65.82,1,1.22l.48.56c.11.13.33.51.46.41-.71.56-1.26-1.77-1.36-2a14.71,14.71,0,0,0-1.39-2.67,6.49,6.49,0,0,1-1-3,17.25,17.25,0,0,1,.11-3.13.63.63,0,0,0-1.23-.17,11.74,11.74,0,0,0,2.55,9.81,3.62,3.62,0,0,0,.73.78c.13.2.22.16.28-.12s.21-.26,0-.31-.24-.23-.32-.36a10.73,10.73,0,0,1-1-2.27c-.31-.82-.58-1.66-.82-2.5a.62.62,0,0,0-1.2.33c.61,2.47,2.09,4.67,3.33,6.87l.7-.92A2.26,2.26,0,0,1,32.82,74a16.6,16.6,0,0,1-1-2.45,19.46,19.46,0,0,1-.9-5.25c0-.8-1.28-.81-1.25,0a21,21,0,0,0,1.14,6.19c.54,1.51,1.24,3.71,3,4.1a.64.64,0,0,0,.71-.92c-1.19-2.1-2.62-4.21-3.21-6.57l-1.2.33a30.26,30.26,0,0,0,1,2.92,9.46,9.46,0,0,0,1.16,2.42c.41.53,1.22,1.06,1.9.67.85-.49.24-1.32-.23-1.79a10.48,10.48,0,0,1-2.84-9.25l-1.22-.16a11.08,11.08,0,0,0,.46,5.57c.37.85.94,1.59,1.38,2.41a27.57,27.57,0,0,1,1,2.61,2.24,2.24,0,0,0,1.57,1.49,1.41,1.41,0,0,0,1.71-1c.16-.79-.75-1.5-1.2-2A25.88,25.88,0,0,1,33,71a8.82,8.82,0,0,1-1.71-6c.12-.79-1.09-1.13-1.21-.34Z" transform="translate(-25.92 -6.39)"/><path class="cls-1" d="M33.86,77.68c.2-.34.4-.67.62-1l.33-.47L35,76l.08-.1s0,0,0,0l.06-.08a.63.63,0,0,0-.61-1,2.18,2.18,0,0,0-1.52,1,1.67,1.67,0,0,0-.16.63c0,.08,0,.16,0,.24s0-.08,0,0l0,.09s0,0,0,.06,0,0,0-.06l0,.07a.61.61,0,0,0-.07.1s.08-.09,0,0l-.07.07c-.08.08.08-.05,0,0l-.08,0h0a.65.65,0,0,0-.45.52.62.62,0,0,0,.3.62,2.74,2.74,0,0,0,1.31.45A1.46,1.46,0,0,0,35,77.91a1.54,1.54,0,0,0,.21-.75V77q0,.13,0,0v0l0-.12c0-.12-.06.12,0,0s.1-.16.15-.24-.08.1,0,0l.08-.09c.13-.14.27-.27.41-.4a.63.63,0,0,0,.09-.76.62.62,0,0,0-.7-.28,1.69,1.69,0,0,0-1,.86,1.67,1.67,0,0,0-.1,1.33.69.69,0,0,0,.29.38.62.62,0,0,0,.48.06.63.63,0,0,0,.43-.77c0-.06,0-.12,0-.18s0,.15,0,0a.34.34,0,0,1,0-.1c0-.08,0-.1,0,0a.28.28,0,0,0,0-.09l0-.08a.43.43,0,0,1,0,0c0-.05,0,0,0,.07s0-.11.08-.16l0,0-.05.06a.6.6,0,0,0,.08-.08l.06-.06c.05,0-.12.08,0,0l.09-.06c.1,0-.14,0,0,0l-.61-1a4.81,4.81,0,0,0-.74.82,2,2,0,0,0-.25.53A2.32,2.32,0,0,0,34,77s0,.08,0,.11,0,.19,0,.09,0,0,0,0,0,.07,0,0h0c-.09.1.11-.1,0,0l0,0c.09-.07,0,0,0,0s.13,0,0,0l-.11,0c-.12,0,.14,0,0,0h-.11c-.11,0,.09,0,0,0l-.25-.07c-.15,0,.11,0,0,0l-.13-.07L33.06,77l-.15,1.14a1.74,1.74,0,0,0,.9-.72,2,2,0,0,0,.26-1.07c0-.12,0,.08,0,0a.38.38,0,0,0,0-.1s-.08.14,0,0a.43.43,0,0,0,0-.07s-.1.11,0,0l.06-.06c.08-.08-.09,0,0,0l.08,0,.16-.08c.12-.06-.14,0,0,0l.09,0,.37-.1-.61-1a18.82,18.82,0,0,0-1.44,2.12.63.63,0,0,0,1.08.63Z" transform="translate(-25.92 -6.39)"/><path class="cls-1" d="M28.41,13.36A40.74,40.74,0,0,0,32.1,24a.63.63,0,0,0,1.08,0c.74-1.66,1.55-3.46,3.15-4.46A.63.63,0,0,0,36,18.33a3.76,3.76,0,0,1-3.34-2,11.32,11.32,0,0,0-2.9-3.3c-.45-.33-1.07.22-.92.71l1.42,4.76a12.31,12.31,0,0,0,1.61,3.87.64.64,0,0,0,1.17-.32c.09-.84.23-2,1.22-2.21l-.33-1.21a2.64,2.64,0,0,0-1.39.91,1.42,1.42,0,0,0,0,1.5.64.64,0,0,0,1.08,0l.95-1.55a.64.64,0,0,0-.37-.92,6.34,6.34,0,0,1-2.59-2.71.63.63,0,0,0-1.14.49,21.71,21.71,0,0,0,1.37,4.46l1.07-.63a1.29,1.29,0,0,1,.33-1.73l-1-.27s0,.07,0,.09c-.67.45,0,1.53.63,1.08a1.29,1.29,0,0,0,.58-1.5.63.63,0,0,0-1-.28,2.51,2.51,0,0,0-.52,3.24c.43.7,1.38.09,1.07-.63A20.84,20.84,0,0,1,31.65,16l-1.14.49a7.7,7.7,0,0,0,3.33,3.28l-.37-.92-.95,1.55H33.6c-.18-.29.48-.5.67-.57a.63.63,0,0,0-.33-1.21c-1.61.34-2,2-2.14,3.42L33,21.74A12.11,12.11,0,0,1,31.41,18l-1.35-4.56-.92.7a8.3,8.3,0,0,1,1.77,1.78c.46.64.8,1.35,1.3,2A4.83,4.83,0,0,0,36,19.58l-.32-1.17c-1.79,1.13-2.75,3-3.59,4.91h1.08A39.61,39.61,0,0,1,29.62,13c-.16-.79-1.37-.46-1.21.33Z" transform="translate(-25.92 -6.39)"/><path class="cls-2" d="M47.66,20.75a25.1,25.1,0,0,1,.59,5.92A25.73,25.73,0,0,1,48,29.58a3,3,0,0,1-.78,2.05c-.63.48,0,1.57.63,1.07,1.55-1.19,1.52-3.59,1.6-5.37a27.2,27.2,0,0,0-.61-6.91c-.18-.79-1.38-.45-1.21.33Z" transform="translate(-25.92 -6.39)"/><path class="cls-2" d="M49.08,46.23a15,15,0,0,0,1,7.17c.92,2.42,2.42,4.49,3.54,6.81s1.25,5.26,1.38,7.93a17.09,17.09,0,0,1-1.13,8,.62.62,0,0,0,1,.75c1.86-1.47,2-4.22,2.33-6.4a24.46,24.46,0,0,0-.22-8.7,25.78,25.78,0,0,0-3.38-7.25,25,25,0,0,1-2-3.91A15.17,15.17,0,0,0,50.1,47a.63.63,0,0,0-1.14.48,45,45,0,0,0,1.85,6.56c.87,2.09,2.42,3.82,3.4,5.87a26.32,26.32,0,0,1,2.22,6.58,16.6,16.6,0,0,1-.57,7.57.62.62,0,0,0,1.2.34A21.11,21.11,0,0,0,55.73,58.1l-1.08.63a12.89,12.89,0,0,1,1.56,12.06c-.28.76.93,1.08,1.21.33a14.1,14.1,0,0,0-1.69-13,.63.63,0,0,0-1.08.63,19.84,19.84,0,0,1,1.21,15.34l1.2.34a17.91,17.91,0,0,0,.77-7,24.33,24.33,0,0,0-1.9-6.72,48.69,48.69,0,0,0-3.33-5.89c-1.36-2.26-1.83-5.13-2.44-7.67L49,47.64a14,14,0,0,1,1.32,3.28,22,22,0,0,0,1.51,3.13,36,36,0,0,1,3.53,6.73,20.22,20.22,0,0,1,.73,7.85c-.17,2.23-.24,5.81-2.16,7.33l1,.76a16.57,16.57,0,0,0,1.35-7.09,32.74,32.74,0,0,0-.75-7.84c-.67-2.57-2.4-4.69-3.54-7.06a15.22,15.22,0,0,1-1.66-8.5c.1-.8-1.15-.79-1.25,0Z" transform="translate(-25.92 -6.39)"/><path class="cls-2" d="M68.38,81.21q-7.21,0-10.4-1.8c-2.12-1.2-3.19-2.26-3.19-3.17a4,4,0,0,1,.36-1.6,4.11,4.11,0,0,1,1.19-1.52,14.43,14.43,0,0,0,4.37,2.54,21.06,21.06,0,0,0,7.46,1.07q7,0,10.09-3.56a13.43,13.43,0,0,0,3.08-9.11,18.11,18.11,0,0,0-1.64-7.84,28.35,28.35,0,0,0-6-7.66L62.31,37.65A36.32,36.32,0,0,1,57,30.88a13.61,13.61,0,0,1-1.85-7,11.34,11.34,0,0,1,4.48-9.26q4.47-3.6,12.5-3.61,6.8,0,9.83,1.37c2,.91,3,1.82,3,2.73a3.2,3.2,0,0,1-.36,1.41,4.83,4.83,0,0,1-1,1.32A13.8,13.8,0,0,0,79.44,16,24.67,24.67,0,0,0,72.18,15a15,15,0,0,0-8.85,2.39,7.43,7.43,0,0,0-3.39,6.38,9.86,9.86,0,0,0,1.7,5.65,36.52,36.52,0,0,0,4.27,5.17l12.66,12a26.69,26.69,0,0,1,6,8.23,22.7,22.7,0,0,1,1.59,8.72,21.89,21.89,0,0,1-1.8,9.07,13.66,13.66,0,0,1-5.71,6.28Q74.76,81.22,68.38,81.21Z" transform="translate(-25.92 -6.39)"/><path class="cls-2" d="M95.54,22a2.29,2.29,0,0,1-2-.93,5.11,5.11,0,0,1-.67-3,5.49,5.49,0,0,1,.82-2.87,2.45,2.45,0,0,1,2.16-1,2.38,2.38,0,0,1,2.17,1,5.55,5.55,0,0,1,.61,2.92A5.4,5.4,0,0,1,97.81,21,2.64,2.64,0,0,1,95.54,22ZM93.38,80.24V33.75a2.36,2.36,0,0,1,.42-1.61,2.19,2.19,0,0,1,1.44-.53c.68-.07,1.61-.1,2.78-.1V79.07a1.27,1.27,0,0,1-.21.83,1.78,1.78,0,0,1-1.13.29C96.06,80.22,95,80.24,93.38,80.24Z" transform="translate(-25.92 -6.39)"/><path class="cls-2" d="M108.61,80.24V33.75a50.26,50.26,0,0,1,7.67-2.39,34.67,34.67,0,0,1,7.46-.83q6,0,8.54,2a8.67,8.67,0,0,1,3.19,5.66,53.94,53.94,0,0,1,.62,8.82V79.07a1.11,1.11,0,0,1-.26.83,2,2,0,0,1-1.18.29c-.62,0-1.68,0-3.19,0v-36a34,34,0,0,0-.36-5.46,4.59,4.59,0,0,0-2-3.22q-1.59-1.07-5.4-1.07a25.8,25.8,0,0,0-5,.49,24.44,24.44,0,0,0-5.51,1.85v42.2a1.11,1.11,0,0,1-.25.83,2.09,2.09,0,0,1-1.19.29C111.19,80.22,110.12,80.24,108.61,80.24Zm22.85,0V36a16.49,16.49,0,0,1,4.48-3,26.41,26.41,0,0,1,5.55-1.85,26.83,26.83,0,0,1,5.61-.64c3.43,0,6,.56,7.56,1.66a7.88,7.88,0,0,1,3.2,4.83,34,34,0,0,1,.77,7.84V79.07a1.27,1.27,0,0,1-.21.83c-.14.16-.53.26-1.18.29s-1.74,0-3.24,0V44.37c0-3.44-.47-5.92-1.39-7.45s-3-2.29-6.13-2.29a23.57,23.57,0,0,0-5,.58,16,16,0,0,0-5.35,2.34V79.07a1.11,1.11,0,0,1-.26.83,2,2,0,0,1-1.18.29C134,80.22,133,80.24,131.46,80.24Z" transform="translate(-25.92 -6.39)"/><path class="cls-2" d="M179.93,81.21a28.9,28.9,0,0,1-7-.73,13.6,13.6,0,0,1-4.89-2.19V10.85a2.34,2.34,0,0,1,.42-1.61,2.16,2.16,0,0,1,1.39-.54c.65-.06,1.59-.09,2.83-.09V34.73a20.66,20.66,0,0,1,5.76-3.07,23.29,23.29,0,0,1,7.72-1.13,14.5,14.5,0,0,1,7.3,1.76,11.43,11.43,0,0,1,4.79,5.8,28.94,28.94,0,0,1,1.7,11,68.32,68.32,0,0,1-1.29,14.43,31.33,31.33,0,0,1-3.4,9.35,16.65,16.65,0,0,1-4.73,5.31,15.53,15.53,0,0,1-5.35,2.44A23.56,23.56,0,0,1,179.93,81.21Zm.51-4.09a13.91,13.91,0,0,0,4.58-.88,11.27,11.27,0,0,0,4.79-3.55,20.87,20.87,0,0,0,3.7-8A56.06,56.06,0,0,0,195,50.51a30.82,30.82,0,0,0-1.18-9.6,8.71,8.71,0,0,0-3.5-4.87,11.44,11.44,0,0,0-6-1.41,18.32,18.32,0,0,0-6.17,1,15.65,15.65,0,0,0-5.35,3.27V75.27a9.78,9.78,0,0,0,2.77,1.27A17,17,0,0,0,180.44,77.12Z" transform="translate(-25.92 -6.39)"/><path class="cls-2" d="M220,81.21a26.05,26.05,0,0,1-5.4-.34A12,12,0,0,1,209.82,79a9.82,9.82,0,0,1-3.39-4.29,19.8,19.8,0,0,1-1.29-7.94,21.36,21.36,0,0,1,1.34-8.28,11.24,11.24,0,0,1,3.6-4.78,12.56,12.56,0,0,1,5.15-2.19,31.7,31.7,0,0,1,5.86-.54,41.75,41.75,0,0,1,4.58.25,19.11,19.11,0,0,1,4.07.82V43.2a10.18,10.18,0,0,0-1.13-5.31,5.62,5.62,0,0,0-3.09-2.43,14.53,14.53,0,0,0-4.53-.64,49.15,49.15,0,0,0-9.21.78,28.71,28.71,0,0,0-6,1.66,6.71,6.71,0,0,1-.46-1.32,4.74,4.74,0,0,1-.16-1.21,3.4,3.4,0,0,1,.16-1.08,1.07,1.07,0,0,1,.56-.68,22,22,0,0,1,6.07-1.66A60.75,60.75,0,0,1,222,30.53c4,0,7.12.87,9.21,2.59s3.14,4.79,3.14,9.21v6q0,5.55-.05,10.82t-.16,9.94c-.07,3.12-.2,5.94-.41,8.48a46.9,46.9,0,0,1-4.89,2.24A24,24,0,0,1,220,81.21Zm.82-3.89a16,16,0,0,0,5.2-.83,9.51,9.51,0,0,0,3.24-1.61c.14-1.5.24-3.33.31-5.51s.12-4.48.16-6.92.05-4.76.05-7a20.91,20.91,0,0,0-3.66-.73,32.77,32.77,0,0,0-3.65-.24,26.86,26.86,0,0,0-4.68.39,9.78,9.78,0,0,0-4,1.61A8.48,8.48,0,0,0,211,60.16a16.38,16.38,0,0,0-1.08,6.53,16,16,0,0,0,.87,5.85,6.65,6.65,0,0,0,2.42,3.17,8.46,8.46,0,0,0,3.5,1.31A27,27,0,0,0,220.78,77.32Z" transform="translate(-25.92 -6.39)"/></g><g id="Capa_2" data-name="Capa 2"><path class="cls-3" d="M48.78,80.71l-.06.05H25.92a2.93,2.93,0,0,1,3.38-3h0a3.89,3.89,0,0,1,.47,0h0s1.37.63,3-1.69a14,14,0,0,1-2.64-4.54c-.08-.24-.16-.48-.23-.73s-.18-.66-.26-1-.1-.49-.14-.74a10.83,10.83,0,0,1-.17-1.54c0-.25,0-.52,0-.78s0-.24,0-.36l0-.55A16,16,0,0,1,32,58.42a12.32,12.32,0,0,1-1.44-7,8.57,8.57,0,0,1,2.49-5.07l.16-.17a6.17,6.17,0,0,1,.54-.48.63.63,0,0,1,.13-.11,13,13,0,0,1,2-1.34A3.34,3.34,0,0,0,38.43,43a5.37,5.37,0,0,0,1-1.89h0l-.18,0-.3-.05-.43-.09-.25-.06L38,40.79l-.29-.09a7.41,7.41,0,0,1-.78-.28l-.45-.2a8.68,8.68,0,0,1-4.76-5.08,2.83,2.83,0,0,1-.11-.31,9.49,9.49,0,0,1-.39-1.63h0l-.06-.38h0l.29,0,.22,0h0l.61-.11.11,0-.45-3.09s.59-1.14,2.21,2.93,10,3.53,10,3.53a9.84,9.84,0,0,0,4.28-2.75,8.23,8.23,0,0,0,2.07-5c.34-4.65-.4-6.21-.78-6.7.74.73,3.1,4,1.53,14.28-.07.43-.14.87-.22,1.33l-.42,2.34s0,.06,0,.09l0,.18c-2,10.77-2.58,11.7-2.58,11.7a9.25,9.25,0,0,0,1.06,8.19,22.75,22.75,0,0,1,3.17,7.65S55,75.75,48.78,80.71Z" transform="translate(-25.92 -6.39)"/><path class="cls-4" d="M48.84,24.68Q44,29,39.07,33.15,43.89,28.85,48.84,24.68Z" transform="translate(-25.92 -6.39)"/><path class="cls-4" d="M45.21,30.92l-6.13,3,0-.07c3.26-.27,6.52-.47,9.78-.71-3.26.26-6.51.56-9.77.79h-.22l.2-.09Z" transform="translate(-25.92 -6.39)"/><path class="cls-4" d="M37,30.53c0,.68-.26,1.23-.58,1.23s-.58-.55-.58-1.23.26-1.24.58-1.24S37,29.84,37,30.53Z" transform="translate(-25.92 -6.39)"/><path class="cls-5" d="M58.6,66.69a14.71,14.71,0,0,1-10,14c6.2-5,3.46-13.45,3.46-13.45a22.75,22.75,0,0,0-3.17-7.65,9.25,9.25,0,0,1-1.06-8.19s.62-.93,2.58-11.7l0-.18s0-.06,0-.09a25.48,25.48,0,0,0-.15,2.78,27.43,27.43,0,0,0,.48,5.08,25.69,25.69,0,0,0,5.76,11.9A14.64,14.64,0,0,1,58.6,66.69Z" transform="translate(-25.92 -6.39)"/><path class="cls-5" d="M49.67,18.26A31.46,31.46,0,0,0,37.32,6.39a29.18,29.18,0,0,0-.14,3,30.4,30.4,0,0,0,1.13,8.26.19.19,0,0,0,0,.08.25.25,0,0,1-.11,0,25.11,25.11,0,0,1-9.43-5c.27.32,4.39,5.1,7.27,6.71A14.6,14.6,0,0,0,32,25l.27.42a13.42,13.42,0,0,0-.31,1.7,11.31,11.31,0,0,0-.12,1.76,3.76,3.76,0,0,0,0,.58,13.55,13.55,0,0,0,.45,3.09l0,0,.11,0-.45-3.09s.59-1.14,2.21,2.93,10,3.53,10,3.53a9.84,9.84,0,0,0,4.28-2.75,8.23,8.23,0,0,0,2.07-5c.34-4.65-.4-6.21-.78-6.7.74.73,3.1,4,1.53,14.28a0,0,0,0,0,0,0c0-.15.08-.31.12-.46a40.32,40.32,0,0,1,1.49-4.08c.22-.5.47-1,.73-1.48A30.82,30.82,0,0,0,49.67,18.26ZM36.4,31.76c-.32,0-.58-.55-.58-1.23s.26-1.24.58-1.24.58.55.58,1.24S36.72,31.76,36.4,31.76Z" transform="translate(-25.92 -6.39)"/><path class="cls-6" d="M51.07,37.1a.31.31,0,0,0,0,.07,10.66,10.66,0,0,0-.35,2.36l0,.18c-.49,1.83-7.51,3.93-12.16,3.26H38.4l.1-.12.11-.14a4.76,4.76,0,0,0,.31-.47,6.94,6.94,0,0,0,.51-1.16h.07C40.25,41.17,46.59,41.78,51.07,37.1Z" transform="translate(-25.92 -6.39)"/><path class="cls-7" d="M32.22,59.41A13.8,13.8,0,0,1,36,55.27c1.84-1.16,4-1,6.09-.89.48,0,.48-.72,0-.75-2.21-.16-4.51-.24-6.47,1a15,15,0,0,0-4,4.41c-.28.4.37.78.65.38Z" transform="translate(-25.92 -6.39)"/></g></svg>