<svg xmlns="http://www.w3.org/2000/svg" viewBox="0 0 132.08 53.22"><defs><style>.cls-1{font-size:49.05px;font-family:YanoneKaffeesatz-Medium, Yanone Kaffeesatz;font-weight:500;letter-spacing:-0.03em;}.cls-1,.cls-9{fill:#3a3a3a;}.cls-2{letter-spacing:-0.01em;}.cls-3{letter-spacing:-0.02em;}.cls-4{fill:#b3b2b1;}.cls-5{fill:#f8f7f7;}.cls-12,.cls-6{fill:none;}.cls-11,.cls-12,.cls-6{stroke:#3a3a3a;stroke-miterlimit:10;}.cls-6{stroke-width:4px;}.cls-7{fill:#fafafa;}.cls-8{fill:#a0a09f;}.cls-10,.cls-11{fill:#e27f98;}.cls-11,.cls-12{stroke-width:3px;}</style></defs><g id="Capa_2" data-name="Capa 2"><g id="Capa_3" data-name="Capa 3"><text class="cls-1" transform="translate(44.09 41.69) scale(1.06 1)">S<tspan class="cls-2" x="16.09" y="0">i</tspan><tspan class="cls-3" x="24.28" y="0">mba</tspan></text></g></g><g id="Capa_7" data-name="Capa 7"><path class="cls-4" d="M53.71,62.23H98.35s1.08-21.42-19.44-22.41S53.35,51.7,53.71,62.23Z" transform="translate(-49.97 -22.48)"/><path class="cls-5" d="M52.13,62.23S60,46.65,75.78,46.65,98.35,62.23,98.35,62.23Z" transform="translate(-49.97 -22.48)"/><path class="cls-6" d="M52,62.66H99.6s.17-23.29-23.82-23.29S52,62.66,52,62.66Z" transform="translate(-49.97 -22.48)"/></g><g id="Capa_5" data-name="Capa 5"><path class="cls-7" d="M52.13,44.4S64,42.73,64.44,39.11s3.28-3.83,3.28-3.83a15.58,15.58,0,0,1,3.17,5.61c1,3.33,12.26,2.61,12.26,2.61l.74,6-2.4.26L78.54,52.6l-5.68,2-2.49-.17-2.65-1.17-2.43,1.34H62.14l-3.47-1.3-2.59-1.66L54.15,50l-2.6-.45.58-5.11" transform="translate(-49.97 -22.48)"/><path class="cls-8" d="M52.13,44.74S59,44.88,63.85,43a4.12,4.12,0,0,0,2.4-2.53c1.3-3.85,1.58-3.93,2.7-.11a4.2,4.2,0,0,0,2.57,2.78c2.3.84,6,1.57,11.78,1.64,0,0-2.55-12.52-15.57-12.52S52.13,44.74,52.13,44.74Z" transform="translate(-49.97 -22.48)"/></g><g id="Capa_4" data-name="Capa 4"><path class="cls-9" d="M58.09,41.37a3.35,3.35,0,0,1,1.27-1A4.16,4.16,0,0,1,61,39.93a3.41,3.41,0,0,1,1.66.33,2.74,2.74,0,0,1,1.22,1.11A13.17,13.17,0,0,0,62.38,41,7,7,0,0,0,61,40.92,21.26,21.26,0,0,0,58.09,41.37Z" transform="translate(-49.97 -22.48)"/><path class="cls-9" d="M71.59,41.37a3.32,3.32,0,0,1,1.26-1,4.26,4.26,0,0,1,1.61-.41,3.39,3.39,0,0,1,1.66.33,2.69,2.69,0,0,1,1.22,1.11A12.52,12.52,0,0,0,75.88,41a7,7,0,0,0-1.37-.08A21.26,21.26,0,0,0,71.59,41.37Z" transform="translate(-49.97 -22.48)"/><path class="cls-10" d="M66.67,44.4h2a.64.64,0,0,1,.44,1.1l-1,1a.62.62,0,0,1-.89,0l-1-1A.64.64,0,0,1,66.67,44.4Z" transform="translate(-49.97 -22.48)"/></g><g id="Capa_1" data-name="Capa 1"><path class="cls-11" d="M62.14,32.58l-5.67-2.37c-1.53-.9-3.22.68-3.21,3v7.44" transform="translate(-49.97 -22.48)"/><path class="cls-11" d="M73.51,32.61l5.67-2.42c1.52-.91,3.21.67,3.22,3v7.45" transform="translate(-49.97 -22.48)"/><path class="cls-12" d="M83.61,49.73H81.49c-8.37,8.17-13.77,3.5-13.77,3.5S62.4,57.9,53.94,49.77H51.83a.27.27,0,0,1-.28-.26c-.09-2.13,0-16.61,16.12-18h.06C83.89,32.87,84,47.34,83.89,49.47A.28.28,0,0,1,83.61,49.73Z" transform="translate(-49.97 -22.48)"/></g></svg>