<svg xmlns="http://www.w3.org/2000/svg" xmlns:xlink="http://www.w3.org/1999/xlink" viewBox="0 0 217.6 78.73"><defs><style>.cls-1{fill:#0876bb;}.cls-2{fill:#1ca2e5;}.cls-3,.cls-5{fill:#414344;}.cls-3{opacity:0.31;}.cls-4{fill:url(#Degradado_sin_nombre_14);}.cls-6{fill:#3d3d3d;}.cls-7{fill:none;stroke:#fff;stroke-miterlimit:10;stroke-width:0.25px;}.cls-8{fill:url(#Degradado_sin_nombre_14-2);}.cls-9{fill:url(#Degradado_sin_nombre_31);}.cls-10{fill:#fff;}</style><linearGradient id="Degradado_sin_nombre_14" x1="6.04" y1="65.85" x2="25.49" y2="38.76" gradientUnits="userSpaceOnUse"><stop offset="0" stop-color="#158fcc"/><stop offset="0.14" stop-color="#158bc6"/><stop offset="0.32" stop-color="#1481b6"/><stop offset="0.52" stop-color="#136f9c"/><stop offset="0.74" stop-color="#115778"/><stop offset="0.97" stop-color="#0f3849"/><stop offset="0.99" stop-color="#0f3544"/></linearGradient><linearGradient id="Degradado_sin_nombre_14-2" x1="15.09" y1="69.66" x2="52.45" y2="24.66" xlink:href="#Degradado_sin_nombre_14"/><linearGradient id="Degradado_sin_nombre_31" x1="44.48" y1="50.01" x2="50.86" y2="51.52" gradientUnits="userSpaceOnUse"><stop offset="0" stop-color="#158fcc"/><stop offset="0.45" stop-color="#12658c"/><stop offset="0.99" stop-color="#0f3544"/></linearGradient></defs><title>Recurso 1</title><g id="Capa_2" data-name="Capa 2"><g id="Capa_1-2" data-name="Capa 1"><path class="cls-1" d="M80.24,78.73a10.15,10.15,0,0,1-4.12-.84,10.59,10.59,0,0,1-3.34-2.3,11.07,11.07,0,0,1-2.27-3.4,10.7,10.7,0,0,1,0-8.31,10.69,10.69,0,0,1,5.61-5.64,10.47,10.47,0,0,1,8.22,0A10.61,10.61,0,0,1,90,63.88a10.7,10.7,0,0,1,0,8.31,11.07,11.07,0,0,1-2.27,3.4,10.61,10.61,0,0,1-3.37,2.3A10.23,10.23,0,0,1,80.24,78.73ZM1.08,76V60H63.33V76Z"/><path class="cls-1" d="M149.37,76H96.62l26.64-47.08H96.62V12.85h52.75L122.73,59.93h26.64Z"/><path class="cls-1" d="M217.6,76h-3.9l-6.26-8.69a51,51,0,0,1-4.87,3.87,36,36,0,0,1-5.41,3.13,32.68,32.68,0,0,1-5.82,2.1,24.3,24.3,0,0,1-6.05.77,34.86,34.86,0,0,1-12.56-2.25,29.71,29.71,0,0,1-10.28-6.53,30.57,30.57,0,0,1-6.94-10.48A37.07,37.07,0,0,1,153,43.8a35.36,35.36,0,0,1,2.54-13.56,32.34,32.34,0,0,1,6.94-10.61,31.52,31.52,0,0,1,10.28-6.88,32.4,32.4,0,0,1,12.56-2.45,24.66,24.66,0,0,1,6.08.77,31.74,31.74,0,0,1,5.85,2.12,37.27,37.27,0,0,1,5.41,3.19,47.54,47.54,0,0,1,4.81,4l6.26-7.5h3.9ZM201.36,43.8a16.88,16.88,0,0,0-1.27-6.41,18.5,18.5,0,0,0-3.46-5.5,17.39,17.39,0,0,0-5.11-3.84,13.93,13.93,0,0,0-6.23-1.44,17.23,17.23,0,0,0-6.24,1.12A14.2,14.2,0,0,0,174,31a15.35,15.35,0,0,0-3.39,5.4,20.31,20.31,0,0,0-1.25,7.36,20.26,20.26,0,0,0,1.25,7.35A15.39,15.39,0,0,0,174,56.56a14.2,14.2,0,0,0,5.08,3.31A17.23,17.23,0,0,0,185.29,61a13.81,13.81,0,0,0,6.23-1.45,17,17,0,0,0,5.11-3.84,18.33,18.33,0,0,0,3.46-5.49A16.92,16.92,0,0,0,201.36,43.8Z"/><g id="nuevo"><path class="cls-2" d="M67.52,38.81c-.26-.23-1.46-.73-.37-1.51,0,0,4.42-2.26-.47-6.53a15.9,15.9,0,0,0-2.86-2.4A21.44,21.44,0,0,1,44.92,39c-9.85,0-18.12-6.13-20.47-14.41a17.77,17.77,0,0,1-.66-4.8A18,18,0,0,1,28.24,8a9.4,9.4,0,0,1,.68-.75v0h0a1.41,1.41,0,0,1,.29-.31.35.35,0,0,1,.11-.1,6.82,6.82,0,0,1,.55-.53c.73-.83,1.33-2.22.29-4.29A2.64,2.64,0,0,0,29.12.93h0a2.25,2.25,0,0,0-.54-.26,5.06,5.06,0,0,0-1.1-.33c-3.08-.67-7.74.09-9.78.49a2.54,2.54,0,0,0-.88.37,2.52,2.52,0,0,0-.68.7C14.33,4.65,8.76,13.53,6.83,20.69h0a.2.2,0,0,0,0,.08c-.16.37-1.44,4.59.06,7.57.53,1,2.28,2.69,4,2.43a2.6,2.6,0,0,0-.83.85L1.11,47.74a.57.57,0,0,0-.08.13c-.43,1.12-2.28,6.44.36,11a2.53,2.53,0,0,0,.89.86,2.36,2.36,0,0,0,1.17.29H60s3.66,1.41,4.22-13.37a2.44,2.44,0,0,1,1.37-2.14,4.83,4.83,0,0,0,1.86-1.33,4.7,4.7,0,0,0,1-2,2.62,2.62,0,0,0-1-2.36Z"/><path id="sombra" class="cls-3" d="M12.06,34.56a1.51,1.51,0,0,1-2.68-1.31,6.61,6.61,0,0,1,.68-1.65,2.47,2.47,0,0,1,1.06-1c1.52-.79,5.3-4,7-16.46l.41-.18S17.57,26.81,12.06,34.56Z"/><path id="patita" class="cls-4" d="M18.63,54.48,8.42,53.91l-.28.5s5.06,1.44,10.6,2.39Z"/><path id="nariz" class="cls-5" d="M26.4.9S26.59-.2,28.16,0a2.1,2.1,0,0,1,.47.79,2,2,0,0,1,.06.92C28.43,2.63,26.4.9,26.4.9Z"/><path id="boca" class="cls-6" d="M28.93,6.68a15.88,15.88,0,0,1-6.4,2.69.19.19,0,0,0,0,.31s4.07-.43,6.43-2.8C28.93,6.88,29.13,6.65,28.93,6.68Z"/><path id="patita-2" data-name="patita" class="cls-2" d="M32.57,49.54a.32.32,0,0,1-.08.55c-9.19,3.85-9.75,13.4-9.69,16.62a2.88,2.88,0,0,1-.63,2,2.7,2.7,0,0,1-1.84,1h-.08a2.3,2.3,0,0,1-2.59-2.09C17.45,53.29,22,44.89,22.88,43.09c.1-.17.61-.47.77-.35Z"/><path id="patita-3" data-name="patita" class="cls-7" d="M17.77,63.24S18.54,45,25.26,40.36C25.26,40.36,19.71,43.25,17.77,63.24Z"/><path id="sombra-2" data-name="sombra" class="cls-8" d="M25.34,60C27.48,49.46,35.61,46.2,35.61,46.2,25.73,49.52,23.7,60,23.7,60Z"/><path class="cls-9" d="M44.31,56.47s.1-10.8,6.55-11.45c0,0-5.33,1.33-5.37,11.34Z"/><path class="cls-6" d="M38.9,59.93c.09-2.55,2.74-3.26,4.67-3.43A5.74,5.74,0,0,0,39.92,58a3.13,3.13,0,0,0-.9,1.92Zm6.59-3.5v-.09c0-6.68,2.07-9.41,3.66-10.53-3.71,2.81-3.56,10.22-3.56,10.3l0,.33Z"/><path class="cls-10" d="M50.93,44.93s-5.57.41-5.57,11.41c0,0-.24,0-.62,0-1.63,0-6,.32-6,3.74h.38S39,56.55,45,56.55l.71,0,0-.46s-.26-9.6,5.27-11l-.06-.13Z"/></g></g></g></svg>