<svg xmlns="http://www.w3.org/2000/svg" xmlns:xlink="http://www.w3.org/1999/xlink" viewBox="0 0 68.89 69.64"><defs><style>.cls-1{fill:#0876bb;}.cls-2{opacity:0.18;fill:url(#Degradado_sin_nombre_31);}.cls-3{fill:url(#Degradado_sin_nombre_31-2);}.cls-4{fill:#414344;}.cls-5{fill:#353535;}.cls-6{fill:#2d2f30;}.cls-7{fill:url(#Degradado_sin_nombre_8);}.cls-8{fill:url(#Degradado_sin_nombre_8-2);}.cls-9{fill:#f7f7f7;opacity:0.06;}</style><linearGradient id="Degradado_sin_nombre_31" y1="36.97" x2="19.95" y2="36.97" gradientUnits="userSpaceOnUse"><stop offset="0" stop-color="#158fcc"/><stop offset="0.45" stop-color="#12658c"/><stop offset="0.99" stop-color="#0f3544"/></linearGradient><linearGradient id="Degradado_sin_nombre_31-2" x1="8.33" y1="55.54" x2="33.76" y2="55.54" xlink:href="#Degradado_sin_nombre_31"/><linearGradient id="Degradado_sin_nombre_8" x1="23.67" y1="53.03" x2="35.56" y2="53.03" gradientUnits="userSpaceOnUse"><stop offset="0" stop-color="#0876bb"/><stop offset="0.38" stop-color="#0b5c8c"/><stop offset="0.99" stop-color="#0f3544"/></linearGradient><linearGradient id="Degradado_sin_nombre_8-2" x1="44.39" y1="49.8" x2="50.76" y2="51.31" xlink:href="#Degradado_sin_nombre_8"/></defs><title>Recurso 4</title><g id="Capa_2" data-name="Capa 2"><g id="Capa_4" data-name="Capa 4"><g id="nuevo"><path class="cls-1" d="M67.43,38.75c-.27-.23-1.46-.73-.37-1.5,0,0,4.41-2.26-.47-6.53a16.36,16.36,0,0,0-2.86-2.4,21.4,21.4,0,0,1-18.87,10.6c-9.83,0-18.09-6.12-20.43-14.39a17.27,17.27,0,0,1-.67-4.79A18,18,0,0,1,28.21,8c.21-.26.43-.5.67-.75,0,0,0,0,0,0h0a1.46,1.46,0,0,1,.3-.31.47.47,0,0,1,.1-.1,6.92,6.92,0,0,1,.56-.53A3.58,3.58,0,0,0,30.14,2,2.64,2.64,0,0,0,29.08.93h0a2.53,2.53,0,0,0-.55-.26A4.8,4.8,0,0,0,27.43.34c-3.08-.67-7.73.09-9.76.49a2.46,2.46,0,0,0-.88.37,2.42,2.42,0,0,0-.69.7C14.32,4.64,8.76,13.51,6.83,20.65a0,0,0,0,0,0,0,.25.25,0,0,0,0,.09c-.16.37-1.44,4.58.06,7.55.53,1,2.27,2.69,4,2.43a2.59,2.59,0,0,0-.83.85L1.12,47.66A.47.47,0,0,0,1,47.8c-.43,1.11-2.28,6.43.36,11a2.55,2.55,0,0,0,.88.85,2.44,2.44,0,0,0,1.18.3H59.91s3.66,1.4,4.22-13.35a2.52,2.52,0,0,1,.39-1.27,2.47,2.47,0,0,1,1-.87,4.68,4.68,0,0,0,1.86-1.33,4.5,4.5,0,0,0,1-2,2.5,2.5,0,0,0-.18-1.3A2.61,2.61,0,0,0,67.43,38.75Z"/><path id="sombra" class="cls-2" d="M16.26,41.39C9.51,49.3,9.51,54.91,9.51,54.91l-1-.08-4.11,5L4.12,60H3.45a2.23,2.23,0,0,1-1.18-.3,2.53,2.53,0,0,1-.88-.84C-1.25,54.23.6,48.9,1,47.8l.06-.14L10,31.58a2.53,2.53,0,0,1,1.06-1c1.51-.79,5.29-4,7-16.43l.41-.18S23,33.47,16.26,41.39Z"/><path id="patita" class="cls-3" d="M19,55.91s-8.89-.49-10.62-1.19c0,0-.1-.11,0,0A83.74,83.74,0,0,0,19,56.4Z"/><path id="nariz" class="cls-4" d="M26.37.89S26.56-.2,28.13,0a2,2,0,0,1,.46.79,1.88,1.88,0,0,1,.07.91C28.4,2.62,26.37.89,26.37.89Z"/><path id="boca" class="cls-5" d="M30,5.86a15.88,15.88,0,0,1-6.39,2.69.19.19,0,0,0,0,.31S27.6,8.43,30,6.07C30,6.07,30.16,5.83,30,5.86Z"/><path id="patita-2" data-name="patita" class="cls-1" d="M32.53,49.46a.32.32,0,0,1-.08.55c-9.18,3.84-9.73,13.38-9.68,16.6a2.86,2.86,0,0,1-.62,2,2.74,2.74,0,0,1-1.85,1h-.07a2.29,2.29,0,0,1-2.59-2.08c-.2-14.35,4.28-22.74,5.22-24.54.09-.17.6-.47.76-.35Z"/><path id="patita-3" data-name="patita" class="cls-6" d="M25.24,40.67s-5.55,2.52-7.49,22.47c0,0,.78-18.18,7.48-22.84Z"/><path id="sombra-2" data-name="sombra" class="cls-7" d="M25.31,59.92c2.14-10.54,10.25-13.8,10.25-13.8C25.7,49.44,23.67,59.94,23.67,59.94Z"/><path class="cls-8" d="M44.22,56.25s.1-10.78,6.54-11.43c0,0-5.32,1.33-5.36,11.33Z"/><path class="cls-6" d="M50.86,44.86s-5.56.41-5.56,11.39c0,0-6.58-.49-6.58,3.71h.38s-.16-3.77,6.53-3.48l0-.46s-.26-9.58,5.26-11Z"/><path class="cls-9" d="M29.47,6.06l0,0c-.2.18-.4.38-.6.58a.47.47,0,0,0-.11.1,1.41,1.41,0,0,0-.29.31,10,10,0,0,0-.69.77,18,18,0,0,0-4.45,11.76A17.64,17.64,0,0,0,24,24.41a.46.46,0,0,1-.07.07c-.18-.54-.34-1.09-.47-1.65a26,26,0,0,1,.1-13c0-.13.07-.27.11-.4A26.33,26.33,0,0,1,27.3,1.6c.57.36,1.25.66,1.39.17a2,2,0,0,0-.07-.91s0,0,0,0a2.64,2.64,0,0,1,1.06,1.06A3.59,3.59,0,0,1,29.47,6.06Z"/></g></g></g></svg>